<?xml version="1.0" standalone="no"?>
<!DOCTYPE svg PUBLIC "-//W3C//DTD SVG 20010904//EN"
 "http://www.w3.org/TR/2001/REC-SVG-20010904/DTD/svg10.dtd">
<svg version="1.0" xmlns="http://www.w3.org/2000/svg"
 width="366.000000pt" height="366.000000pt" viewBox="0 0 366.000000 366.000000"
 preserveAspectRatio="xMidYMid meet">
<metadata>
Created by potrace 1.14, written by Peter Selinger 2001-2017
</metadata>
<g transform="translate(0.000000,366.000000) scale(0.100000,-0.100000)"
fill="#000000" stroke="none">
<path d="M1545 3630 c-394 -61 -746 -246 -1030 -541 -328 -341 -505 -778 -505
-1251 0 -375 99 -710 301 -1016 105 -158 275 -339 431 -456 495 -372 1167
-459 1762 -230 342 132 662 398 870 724 179 281 275 618 276 967 1 630 -304
1189 -840 1541 -139 91 -359 186 -538 232 -202 51 -506 64 -727 30z m1098
-731 c311 -102 376 -521 113 -720 -26 -20 -73 -45 -103 -55 -49 -17 -54 -21
-50 -44 3 -14 12 -60 21 -103 85 -417 -180 -831 -599 -933 -104 -26 -288 -24
-388 3 -72 20 -79 20 -83 5 -42 -135 -115 -220 -232 -275 -172 -80 -392 -23
-502 131 -160 223 -66 534 190 630 34 13 54 25 51 34 -21 80 -41 208 -41 268
0 235 119 485 298 625 71 57 186 116 277 145 110 35 286 39 410 10 53 -12 98
-20 99 -18 1 1 10 24 19 49 43 116 139 210 251 248 82 27 186 27 269 0z"/>
<path d="M2414 2767 c-75 -29 -138 -94 -162 -166 -7 -19 -12 -70 -12 -115 0
-63 -4 -88 -20 -113 -44 -72 -105 -86 -205 -48 -53 21 -94 29 -170 32 -89 5
-108 2 -180 -21 -182 -61 -302 -193 -351 -386 -21 -85 -14 -191 20 -290 31
-90 32 -125 6 -167 -33 -55 -63 -68 -164 -68 -105 -1 -161 -21 -218 -77 -47
-47 -70 -100 -76 -173 -8 -105 36 -194 125 -250 41 -26 59 -30 128 -33 93 -4
135 10 196 65 64 57 81 102 88 220 5 81 10 107 27 130 45 60 102 67 221 27
196 -66 405 -14 546 135 139 148 182 351 112 536 -30 81 -32 129 -5 172 29 47
73 67 150 65 35 -1 89 5 120 14 104 30 190 147 190 259 0 52 -27 128 -60 168
-52 62 -111 90 -199 94 -44 1 -89 -2 -107 -10z m-447 -665 c102 -53 166 -158
166 -271 0 -91 -30 -157 -99 -220 -69 -63 -132 -85 -224 -79 -201 15 -330 215
-259 404 28 74 80 130 154 166 54 26 68 29 140 25 57 -2 92 -10 122 -25z"/>
</g>
</svg>
